<svg id="visual" viewBox="0 0 900 600" width="900" height="600" xmlns="http://www.w3.org/2000/svg" xmlns:xlink="http://www.w3.org/1999/xlink" version="1.1"><rect x="0" y="0" width="900" height="600" fill="#4359F5"></rect><path d="M0 350L16.7 345.3C33.3 340.7 66.7 331.3 100 329.8C133.3 328.3 166.7 334.7 200 338.7C233.3 342.7 266.7 344.3 300 346.5C333.3 348.7 366.7 351.3 400 343.7C433.3 336 466.7 318 500 299.7C533.3 281.3 566.7 262.7 600 269.8C633.3 277 666.7 310 700 328.7C733.3 347.3 766.7 351.7 800 345.2C833.3 338.7 866.7 321.3 883.3 312.7L900 304L900 601L883.3 601C866.7 601 833.3 601 800 601C766.7 601 733.3 601 700 601C666.7 601 633.3 601 600 601C566.7 601 533.3 601 500 601C466.7 601 433.3 601 400 601C366.7 601 333.3 601 300 601C266.7 601 233.3 601 200 601C166.7 601 133.3 601 100 601C66.7 601 33.3 601 16.7 601L0 601Z" fill="#4359f5"></path><path d="M0 386L16.7 389.7C33.3 393.3 66.7 400.7 100 395.2C133.3 389.7 166.7 371.3 200 353C233.3 334.7 266.7 316.3 300 323.3C333.3 330.3 366.7 362.7 400 375.5C433.3 388.3 466.7 381.7 500 376.7C533.3 371.7 566.7 368.3 600 373.8C633.3 379.3 666.7 393.7 700 390.2C733.3 386.7 766.7 365.3 800 355C833.3 344.7 866.7 345.3 883.3 345.7L900 346L900 601L883.3 601C866.7 601 833.3 601 800 601C766.7 601 733.3 601 700 601C666.7 601 633.3 601 600 601C566.7 601 533.3 601 500 601C466.7 601 433.3 601 400 601C366.7 601 333.3 601 300 601C266.7 601 233.3 601 200 601C166.7 601 133.3 601 100 601C66.7 601 33.3 601 16.7 601L0 601Z" fill="#394ff7"></path><path d="M0 413L16.7 412.5C33.3 412 66.7 411 100 401.5C133.3 392 166.7 374 200 380.3C233.3 386.7 266.7 417.3 300 427.2C333.3 437 366.7 426 400 414.3C433.3 402.7 466.7 390.3 500 385.3C533.3 380.3 566.7 382.7 600 389.7C633.3 396.7 666.7 408.3 700 411.2C733.3 414 766.7 408 800 411.5C833.3 415 866.7 428 883.3 434.5L900 441L900 601L883.3 601C866.7 601 833.3 601 800 601C766.7 601 733.3 601 700 601C666.7 601 633.3 601 600 601C566.7 601 533.3 601 500 601C466.7 601 433.3 601 400 601C366.7 601 333.3 601 300 601C266.7 601 233.3 601 200 601C166.7 601 133.3 601 100 601C66.7 601 33.3 601 16.7 601L0 601Z" fill="#2e44f8"></path><path d="M0 502L16.7 503.3C33.3 504.7 66.7 507.3 100 496C133.3 484.7 166.7 459.3 200 455C233.3 450.7 266.7 467.3 300 475.5C333.3 483.7 366.7 483.3 400 487.8C433.3 492.3 466.7 501.7 500 494.8C533.3 488 566.7 465 600 456.2C633.3 447.3 666.7 452.7 700 451.7C733.3 450.7 766.7 443.3 800 443.8C833.3 444.3 866.7 452.7 883.3 456.8L900 461L900 601L883.3 601C866.7 601 833.3 601 800 601C766.7 601 733.3 601 700 601C666.7 601 633.3 601 600 601C566.7 601 533.3 601 500 601C466.7 601 433.3 601 400 601C366.7 601 333.3 601 300 601C266.7 601 233.3 601 200 601C166.7 601 133.3 601 100 601C66.7 601 33.3 601 16.7 601L0 601Z" fill="#2338f9"></path><path d="M0 490L16.7 491C33.3 492 66.7 494 100 503.2C133.3 512.3 166.7 528.7 200 541C233.3 553.3 266.7 561.7 300 561C333.3 560.3 366.7 550.7 400 542.2C433.3 533.7 466.7 526.3 500 521.8C533.3 517.3 566.7 515.7 600 522C633.3 528.3 666.7 542.7 700 539.3C733.3 536 766.7 515 800 513.5C833.3 512 866.7 530 883.3 539L900 548L900 601L883.3 601C866.7 601 833.3 601 800 601C766.7 601 733.3 601 700 601C666.7 601 633.3 601 600 601C566.7 601 533.3 601 500 601C466.7 601 433.3 601 400 601C366.7 601 333.3 601 300 601C266.7 601 233.3 601 200 601C166.7 601 133.3 601 100 601C66.7 601 33.3 601 16.7 601L0 601Z" fill="#172afa"></path></svg>